<svg width="12" height="11" viewBox="0 0 12 11" fill="none" xmlns="http://www.w3.org/2000/svg">
<g clip-path="url(#clip0)">
<path d="M11.0021 3.57287L7.95838 3.12912L6.59797 0.370792C6.35422 -0.120874 5.64797 -0.127124 5.40213 0.370792L4.04172 3.12912L0.997967 3.57287C0.452134 3.65204 0.233384 4.32495 0.629217 4.71037L2.8313 6.8562L2.31047 9.88744C2.21672 10.4354 2.7938 10.8458 3.27713 10.5895L6.00005 9.15828L8.72297 10.5895C9.2063 10.8437 9.78338 10.4354 9.68963 9.88744L9.1688 6.8562L11.3709 4.71037C11.7667 4.32495 11.548 3.65204 11.0021 3.57287ZM8.09588 6.5062L8.58963 9.38953L6.00005 8.02911L3.41047 9.38953L3.90422 6.5062L1.80838 4.46454L4.70422 4.0437L6.00005 1.41871L7.29588 4.0437L10.1917 4.46454L8.09588 6.5062Z" fill="white"/>
</g>
<defs>
<clipPath id="clip0">
<rect width="12" height="10.6667" fill="white"/>
</clipPath>
</defs>
</svg>
